<svg xmlns="http://www.w3.org/2000/svg" xmlns:xlink="http://www.w3.org/1999/xlink" width="40" zoomAndPan="magnify" viewBox="0 0 30 30.000001" height="40" preserveAspectRatio="xMidYMid meet" version="1.0"><defs><clipPath id="bf686cbb5c"><path d="M 1.464844 0 L 28.320312 0 L 28.320312 29.03125 L 1.464844 29.03125 Z M 1.464844 0 " clip-rule="nonzero"/></clipPath></defs><g clip-path="url(#bf686cbb5c)"><path fill="#2eaf9d" d="M 1.464844 0 L 2.609375 1.140625 L 2.609375 29.019531 L 1.464844 29.019531 Z M 28.53125 0 L 28.53125 29.019531 L 27.390625 29.019531 L 27.390625 7.484375 L 25.191406 9.667969 L 25.191406 29.019531 L 24.046875 29.019531 L 24.046875 10.8125 L 15.011719 19.886719 L 14.222656 19.070312 L 27.402344 5.832031 L 27.402344 2.792969 L 12.703125 17.554688 L 5.949219 10.8125 L 5.949219 29.03125 L 4.808594 29.03125 L 4.808594 3.328125 L 15.023438 13.542969 Z M 5.949219 6.109375 L 5.949219 9.160156 L 12.65625 15.863281 L 14.171875 14.347656 Z M 5.949219 6.109375 " fill-opacity="1" fill-rule="nonzero"/></g></svg>