<svg xmlns="http://www.w3.org/2000/svg" xmlns:xlink="http://www.w3.org/1999/xlink" width="200" zoomAndPan="magnify" viewBox="0 0 150 149.999998" height="200" preserveAspectRatio="xMidYMid meet" version="1.0"><defs><clipPath id="5a6f892d6d"><path d="M 21.816406 29 L 128.316406 29 L 128.316406 150 L 21.816406 150 Z M 21.816406 29 " clip-rule="nonzero"/></clipPath></defs><g clip-path="url(#5a6f892d6d)"><path fill="#18a76d" d="M 128.148438 29.476562 L 118.46875 137.929688 L 74.953125 149.996094 L 31.554688 137.949219 L 21.886719 29.476562 L 128.152344 29.476562 Z M 128.148438 29.476562 " fill-opacity="1" fill-rule="nonzero"/></g><path fill="#4af8e4" d="M 75.019531 140.773438 L 110.183594 131.027344 L 118.457031 38.347656 L 75.019531 38.347656 Z M 75.019531 140.773438 " fill-opacity="1" fill-rule="nonzero"/><path fill="#ebebeb" d="M 56.199219 64.953125 L 75.019531 64.953125 L 75.019531 51.648438 L 41.660156 51.648438 L 41.976562 55.21875 L 45.25 91.878906 L 75.019531 91.878906 L 75.019531 78.578125 L 57.414062 78.578125 Z M 56.199219 64.953125 " fill-opacity="1" fill-rule="nonzero"/><path fill="#ebebeb" d="M 59.195312 98.53125 L 45.84375 98.53125 L 47.707031 119.421875 L 74.957031 126.984375 L 75.019531 126.96875 L 75.019531 113.125 L 74.960938 113.144531 L 60.144531 109.140625 Z M 59.195312 98.53125 " fill-opacity="1" fill-rule="nonzero"/><path fill="#ffffff" d="M 31.773438 0 L 38.535156 0 L 38.535156 6.679688 L 44.71875 6.679688 L 44.71875 0 L 51.480469 0 L 51.480469 20.226562 L 44.71875 20.226562 L 44.71875 13.453125 L 38.535156 13.453125 L 38.535156 20.226562 L 31.773438 20.226562 Z M 31.773438 0 " fill-opacity="1" fill-rule="nonzero"/><path fill="#ffffff" d="M 60.367188 6.707031 L 54.417969 6.707031 L 54.417969 0 L 73.085938 0 L 73.085938 6.707031 L 67.128906 6.707031 L 67.128906 20.226562 L 60.371094 20.226562 L 60.371094 6.707031 Z M 60.367188 6.707031 " fill-opacity="1" fill-rule="nonzero"/><path fill="#ffffff" d="M 76.046875 0 L 83.09375 0 L 87.433594 7.105469 L 91.765625 0 L 98.816406 0 L 98.816406 20.226562 L 92.085938 20.226562 L 92.085938 10.203125 L 87.433594 17.394531 L 87.316406 17.394531 L 82.664062 10.203125 L 82.664062 20.226562 L 76.046875 20.226562 Z M 76.046875 0 " fill-opacity="1" fill-rule="nonzero"/><path fill="#ffffff" d="M 102.183594 0 L 108.941406 0 L 108.941406 13.542969 L 118.453125 13.542969 L 118.453125 20.226562 L 102.183594 20.226562 Z M 102.183594 0 " fill-opacity="1" fill-rule="nonzero"/><path fill="#ffffff" d="M 74.972656 91.878906 L 91.355469 91.878906 L 89.808594 109.132812 L 74.972656 113.140625 L 74.972656 126.976562 L 102.246094 119.421875 L 102.445312 117.171875 L 105.574219 82.148438 L 105.898438 78.578125 L 74.972656 78.578125 Z M 74.972656 91.878906 " fill-opacity="1" fill-rule="nonzero"/><path fill="#ffffff" d="M 74.972656 64.917969 L 74.972656 64.953125 L 107.105469 64.953125 L 107.371094 61.960938 L 107.980469 55.21875 L 108.296875 51.648438 L 74.972656 51.648438 Z M 74.972656 64.917969 " fill-opacity="1" fill-rule="nonzero"/></svg>