<svg xmlns="http://www.w3.org/2000/svg" xmlns:xlink="http://www.w3.org/1999/xlink" width="200" zoomAndPan="magnify" viewBox="0 0 150 149.999998" height="200" preserveAspectRatio="xMidYMid meet" version="1.0"><defs><clipPath id="db848d29ea"><path d="M 0.253906 36.273438 L 149.820312 36.273438 L 149.820312 113.523438 L 0.253906 113.523438 Z M 0.253906 36.273438 " clip-rule="nonzero"/></clipPath><clipPath id="9a17a52593"><path d="M 0.394531 75.054688 C 0.394531 96.441406 33.8125 113.78125 75.035156 113.78125 C 116.257812 113.78125 149.679688 96.441406 149.679688 75.054688 C 149.679688 53.664062 116.257812 36.324219 75.035156 36.324219 C 33.8125 36.324219 0.394531 53.664062 0.394531 75.054688 " clip-rule="nonzero"/></clipPath><clipPath id="f53f322891"><path d="M 0.394531 75.054688 C 0.394531 96.441406 33.8125 113.78125 75.035156 113.78125 C 116.257812 113.78125 149.679688 96.441406 149.679688 75.054688 C 149.679688 53.664062 116.257812 36.324219 75.035156 36.324219 C 33.8125 36.324219 0.394531 53.664062 0.394531 75.054688 " clip-rule="nonzero"/></clipPath><radialGradient gradientTransform="matrix(1.00687, 0, 0, 0.99313, 45.209881, 49.939004)" gradientUnits="userSpaceOnUse" r="97.348402" cx="0" id="3177597831" cy="0" fx="0" fy="0"><stop stop-opacity="1" stop-color="rgb(29.019165%, 97.24884%, 89.408875%)" offset="0"/><stop stop-opacity="1" stop-color="rgb(29.019165%, 97.24884%, 89.408875%)" offset="0.25"/><stop stop-opacity="1" stop-color="rgb(28.961182%, 97.099304%, 89.263916%)" offset="0.296875"/><stop stop-opacity="1" stop-color="rgb(28.857422%, 96.826172%, 88.998413%)" offset="0.304688"/><stop stop-opacity="1" stop-color="rgb(28.761292%, 96.577454%, 88.755798%)" offset="0.308594"/><stop stop-opacity="1" stop-color="rgb(28.666687%, 96.328735%, 88.514709%)" offset="0.3125"/><stop stop-opacity="1" stop-color="rgb(28.570557%, 96.081543%, 88.273621%)" offset="0.316406"/><stop stop-opacity="1" stop-color="rgb(28.475952%, 95.832825%, 88.031006%)" offset="0.320312"/><stop stop-opacity="1" stop-color="rgb(28.379822%, 95.584106%, 87.789917%)" offset="0.324219"/><stop stop-opacity="1" stop-color="rgb(28.285217%, 95.335388%, 87.548828%)" offset="0.328125"/><stop stop-opacity="1" stop-color="rgb(28.189087%, 95.08667%, 87.306213%)" offset="0.332031"/><stop stop-opacity="1" stop-color="rgb(28.094482%, 94.839478%, 87.065125%)" offset="0.335938"/><stop stop-opacity="1" stop-color="rgb(27.998352%, 94.590759%, 86.82251%)" offset="0.339844"/><stop stop-opacity="1" stop-color="rgb(27.903748%, 94.342041%, 86.581421%)" offset="0.34375"/><stop stop-opacity="1" stop-color="rgb(27.809143%, 94.093323%, 86.340332%)" offset="0.347656"/><stop stop-opacity="1" stop-color="rgb(27.713013%, 93.844604%, 86.097717%)" offset="0.351562"/><stop stop-opacity="1" stop-color="rgb(27.618408%, 93.595886%, 85.856628%)" offset="0.355469"/><stop stop-opacity="1" stop-color="rgb(27.522278%, 93.348694%, 85.61554%)" offset="0.359375"/><stop stop-opacity="1" stop-color="rgb(27.427673%, 93.099976%, 85.372925%)" offset="0.363281"/><stop stop-opacity="1" stop-color="rgb(27.331543%, 92.851257%, 85.131836%)" offset="0.367188"/><stop stop-opacity="1" stop-color="rgb(27.236938%, 92.602539%, 84.889221%)" offset="0.371094"/><stop stop-opacity="1" stop-color="rgb(27.140808%, 92.353821%, 84.648132%)" offset="0.375"/><stop stop-opacity="1" stop-color="rgb(27.046204%, 92.106628%, 84.407043%)" offset="0.378906"/><stop stop-opacity="1" stop-color="rgb(26.950073%, 91.85791%, 84.164429%)" offset="0.382812"/><stop stop-opacity="1" stop-color="rgb(26.855469%, 91.609192%, 83.92334%)" offset="0.386719"/><stop stop-opacity="1" stop-color="rgb(26.759338%, 91.360474%, 83.680725%)" offset="0.390625"/><stop stop-opacity="1" stop-color="rgb(26.664734%, 91.111755%, 83.439636%)" offset="0.394531"/><stop stop-opacity="1" stop-color="rgb(26.568604%, 90.863037%, 83.198547%)" offset="0.398438"/><stop stop-opacity="1" stop-color="rgb(26.473999%, 90.615845%, 82.955933%)" offset="0.402344"/><stop stop-opacity="1" stop-color="rgb(26.379395%, 90.367126%, 82.714844%)" offset="0.40625"/><stop stop-opacity="1" stop-color="rgb(26.283264%, 90.118408%, 82.473755%)" offset="0.410156"/><stop stop-opacity="1" stop-color="rgb(26.18866%, 89.86969%, 82.23114%)" offset="0.414062"/><stop stop-opacity="1" stop-color="rgb(26.092529%, 89.620972%, 81.990051%)" offset="0.417969"/><stop stop-opacity="1" stop-color="rgb(25.997925%, 89.373779%, 81.747437%)" offset="0.421875"/><stop stop-opacity="1" stop-color="rgb(25.901794%, 89.125061%, 81.506348%)" offset="0.425781"/><stop stop-opacity="1" stop-color="rgb(25.80719%, 88.876343%, 81.265259%)" offset="0.429688"/><stop stop-opacity="1" stop-color="rgb(25.71106%, 88.627625%, 81.022644%)" offset="0.433594"/><stop stop-opacity="1" stop-color="rgb(25.616455%, 88.378906%, 80.781555%)" offset="0.4375"/><stop stop-opacity="1" stop-color="rgb(25.520325%, 88.131714%, 80.540466%)" offset="0.441406"/><stop stop-opacity="1" stop-color="rgb(25.42572%, 87.882996%, 80.297852%)" offset="0.445312"/><stop stop-opacity="1" stop-color="rgb(25.32959%, 87.634277%, 80.056763%)" offset="0.449219"/><stop stop-opacity="1" stop-color="rgb(25.234985%, 87.385559%, 79.814148%)" offset="0.453125"/><stop stop-opacity="1" stop-color="rgb(25.140381%, 87.136841%, 79.573059%)" offset="0.457031"/><stop stop-opacity="1" stop-color="rgb(25.04425%, 86.888123%, 79.33197%)" offset="0.460938"/><stop stop-opacity="1" stop-color="rgb(24.949646%, 86.64093%, 79.089355%)" offset="0.464844"/><stop stop-opacity="1" stop-color="rgb(24.853516%, 86.392212%, 78.848267%)" offset="0.46875"/><stop stop-opacity="1" stop-color="rgb(24.758911%, 86.143494%, 78.607178%)" offset="0.472656"/><stop stop-opacity="1" stop-color="rgb(24.662781%, 85.894775%, 78.364563%)" offset="0.476562"/><stop stop-opacity="1" stop-color="rgb(24.568176%, 85.646057%, 78.123474%)" offset="0.480469"/><stop stop-opacity="1" stop-color="rgb(24.472046%, 85.398865%, 77.880859%)" offset="0.484375"/><stop stop-opacity="1" stop-color="rgb(24.377441%, 85.150146%, 77.639771%)" offset="0.488281"/><stop stop-opacity="1" stop-color="rgb(24.281311%, 84.901428%, 77.398682%)" offset="0.492188"/><stop stop-opacity="1" stop-color="rgb(24.186707%, 84.65271%, 77.156067%)" offset="0.496094"/><stop stop-opacity="1" stop-color="rgb(24.090576%, 84.403992%, 76.914978%)" offset="0.5"/><stop stop-opacity="1" stop-color="rgb(23.995972%, 84.155273%, 76.672363%)" offset="0.503906"/><stop stop-opacity="1" stop-color="rgb(23.899841%, 83.908081%, 76.431274%)" offset="0.507812"/><stop stop-opacity="1" stop-color="rgb(23.805237%, 83.659363%, 76.190186%)" offset="0.511719"/><stop stop-opacity="1" stop-color="rgb(23.710632%, 83.410645%, 75.947571%)" offset="0.515625"/><stop stop-opacity="1" stop-color="rgb(23.614502%, 83.161926%, 75.706482%)" offset="0.519531"/><stop stop-opacity="1" stop-color="rgb(23.519897%, 82.913208%, 75.465393%)" offset="0.523438"/><stop stop-opacity="1" stop-color="rgb(23.423767%, 82.666016%, 75.222778%)" offset="0.527344"/><stop stop-opacity="1" stop-color="rgb(23.329163%, 82.417297%, 74.981689%)" offset="0.53125"/><stop stop-opacity="1" stop-color="rgb(23.233032%, 82.168579%, 74.739075%)" offset="0.535156"/><stop stop-opacity="1" stop-color="rgb(23.138428%, 81.919861%, 74.497986%)" offset="0.539062"/><stop stop-opacity="1" stop-color="rgb(23.042297%, 81.671143%, 74.256897%)" offset="0.542969"/><stop stop-opacity="1" stop-color="rgb(22.947693%, 81.422424%, 74.014282%)" offset="0.546875"/><stop stop-opacity="1" stop-color="rgb(22.851562%, 81.175232%, 73.773193%)" offset="0.550781"/><stop stop-opacity="1" stop-color="rgb(22.756958%, 80.926514%, 73.532104%)" offset="0.554688"/><stop stop-opacity="1" stop-color="rgb(22.660828%, 80.677795%, 73.28949%)" offset="0.558594"/><stop stop-opacity="1" stop-color="rgb(22.566223%, 80.429077%, 73.048401%)" offset="0.5625"/><stop stop-opacity="1" stop-color="rgb(22.471619%, 80.180359%, 72.805786%)" offset="0.566406"/><stop stop-opacity="1" stop-color="rgb(22.375488%, 79.933167%, 72.564697%)" offset="0.570312"/><stop stop-opacity="1" stop-color="rgb(22.280884%, 79.684448%, 72.323608%)" offset="0.574219"/><stop stop-opacity="1" stop-color="rgb(22.184753%, 79.43573%, 72.080994%)" offset="0.578125"/><stop stop-opacity="1" stop-color="rgb(22.090149%, 79.187012%, 71.839905%)" offset="0.582031"/><stop stop-opacity="1" stop-color="rgb(21.994019%, 78.938293%, 71.598816%)" offset="0.585938"/><stop stop-opacity="1" stop-color="rgb(21.899414%, 78.689575%, 71.356201%)" offset="0.589844"/><stop stop-opacity="1" stop-color="rgb(21.803284%, 78.442383%, 71.115112%)" offset="0.59375"/><stop stop-opacity="1" stop-color="rgb(21.708679%, 78.193665%, 70.872498%)" offset="0.597656"/><stop stop-opacity="1" stop-color="rgb(21.612549%, 77.944946%, 70.631409%)" offset="0.601562"/><stop stop-opacity="1" stop-color="rgb(21.517944%, 77.696228%, 70.39032%)" offset="0.605469"/><stop stop-opacity="1" stop-color="rgb(21.421814%, 77.44751%, 70.147705%)" offset="0.609375"/><stop stop-opacity="1" stop-color="rgb(21.327209%, 77.200317%, 69.906616%)" offset="0.613281"/><stop stop-opacity="1" stop-color="rgb(21.232605%, 76.951599%, 69.665527%)" offset="0.617188"/><stop stop-opacity="1" stop-color="rgb(21.136475%, 76.702881%, 69.422913%)" offset="0.621094"/><stop stop-opacity="1" stop-color="rgb(21.04187%, 76.454163%, 69.181824%)" offset="0.625"/><stop stop-opacity="1" stop-color="rgb(20.94574%, 76.205444%, 68.939209%)" offset="0.628906"/><stop stop-opacity="1" stop-color="rgb(20.851135%, 75.958252%, 68.69812%)" offset="0.632812"/><stop stop-opacity="1" stop-color="rgb(20.755005%, 75.709534%, 68.457031%)" offset="0.636719"/><stop stop-opacity="1" stop-color="rgb(20.6604%, 75.460815%, 68.214417%)" offset="0.640625"/><stop stop-opacity="1" stop-color="rgb(20.56427%, 75.212097%, 67.973328%)" offset="0.644531"/><stop stop-opacity="1" stop-color="rgb(20.469666%, 74.963379%, 67.730713%)" offset="0.648438"/><stop stop-opacity="1" stop-color="rgb(20.373535%, 74.714661%, 67.489624%)" offset="0.652344"/><stop stop-opacity="1" stop-color="rgb(20.278931%, 74.467468%, 67.248535%)" offset="0.65625"/><stop stop-opacity="1" stop-color="rgb(20.1828%, 74.21875%, 67.00592%)" offset="0.660156"/><stop stop-opacity="1" stop-color="rgb(20.088196%, 73.970032%, 66.764832%)" offset="0.664062"/><stop stop-opacity="1" stop-color="rgb(19.992065%, 73.721313%, 66.523743%)" offset="0.667969"/><stop stop-opacity="1" stop-color="rgb(19.897461%, 73.472595%, 66.281128%)" offset="0.671875"/><stop stop-opacity="1" stop-color="rgb(19.802856%, 73.225403%, 66.040039%)" offset="0.675781"/><stop stop-opacity="1" stop-color="rgb(19.706726%, 72.976685%, 65.797424%)" offset="0.679688"/><stop stop-opacity="1" stop-color="rgb(19.612122%, 72.727966%, 65.556335%)" offset="0.683594"/><stop stop-opacity="1" stop-color="rgb(19.515991%, 72.479248%, 65.315247%)" offset="0.6875"/><stop stop-opacity="1" stop-color="rgb(19.421387%, 72.23053%, 65.072632%)" offset="0.691406"/><stop stop-opacity="1" stop-color="rgb(19.325256%, 71.981812%, 64.831543%)" offset="0.695312"/><stop stop-opacity="1" stop-color="rgb(19.230652%, 71.734619%, 64.590454%)" offset="0.699219"/><stop stop-opacity="1" stop-color="rgb(19.134521%, 71.485901%, 64.347839%)" offset="0.703125"/><stop stop-opacity="1" stop-color="rgb(19.039917%, 71.237183%, 64.10675%)" offset="0.707031"/><stop stop-opacity="1" stop-color="rgb(18.943787%, 70.988464%, 63.864136%)" offset="0.710938"/><stop stop-opacity="1" stop-color="rgb(18.849182%, 70.739746%, 63.623047%)" offset="0.714844"/><stop stop-opacity="1" stop-color="rgb(18.753052%, 70.492554%, 63.381958%)" offset="0.71875"/><stop stop-opacity="1" stop-color="rgb(18.658447%, 70.243835%, 63.139343%)" offset="0.722656"/><stop stop-opacity="1" stop-color="rgb(18.563843%, 69.995117%, 62.898254%)" offset="0.726562"/><stop stop-opacity="1" stop-color="rgb(18.467712%, 69.746399%, 62.657166%)" offset="0.730469"/><stop stop-opacity="1" stop-color="rgb(18.373108%, 69.497681%, 62.414551%)" offset="0.734375"/><stop stop-opacity="1" stop-color="rgb(18.276978%, 69.248962%, 62.173462%)" offset="0.738281"/><stop stop-opacity="1" stop-color="rgb(18.182373%, 69.00177%, 61.930847%)" offset="0.742188"/><stop stop-opacity="1" stop-color="rgb(18.086243%, 68.753052%, 61.689758%)" offset="0.746094"/><stop stop-opacity="1" stop-color="rgb(18.03894%, 68.629456%, 61.569214%)" offset="1"/></radialGradient></defs><g clip-path="url(#db848d29ea)"><g clip-path="url(#9a17a52593)"><g clip-path="url(#f53f322891)"><path fill="url(#3177597831)" d="M 0.394531 36.324219 L 0.394531 113.523438 L 149.679688 113.523438 L 149.679688 36.324219 Z M 0.394531 36.324219 " fill-rule="nonzero"/></g></g></g><path fill="#2eaf9d" d="M 75.035156 110.90625 C 114.648438 110.90625 146.765625 94.855469 146.765625 75.054688 C 146.765625 55.25 114.648438 39.199219 75.035156 39.199219 C 35.421875 39.199219 3.308594 55.25 3.308594 75.054688 C 3.308594 94.855469 35.421875 110.90625 75.035156 110.90625 " fill-opacity="1" fill-rule="nonzero"/><path fill="#000000" d="M 40.945312 79.496094 C 44.203125 79.496094 46.636719 78.90625 48.175781 77.738281 C 49.695312 76.582031 50.746094 74.578125 51.296875 71.785156 C 51.8125 69.171875 51.617188 67.351562 50.71875 66.367188 C 49.796875 65.359375 47.808594 64.851562 44.804688 64.851562 L 39.601562 64.851562 L 36.714844 79.496094 Z M 23.921875 97.539062 C 23.679688 97.539062 23.453125 97.433594 23.296875 97.25 C 23.136719 97.054688 23.078125 96.835938 23.128906 96.589844 L 30.773438 57.777344 C 30.8125 57.589844 30.90625 57.433594 31.054688 57.3125 C 31.203125 57.191406 31.375 57.128906 31.570312 57.128906 L 48.054688 57.128906 C 53.234375 57.128906 57.089844 58.515625 59.511719 61.253906 C 61.949219 64.003906 62.703125 67.851562 61.75 72.683594 C 61.363281 74.652344 60.695312 76.480469 59.769531 78.117188 C 58.839844 79.757812 57.613281 81.273438 56.121094 82.625 C 54.335938 84.273438 52.3125 85.472656 50.117188 86.175781 C 47.957031 86.867188 45.183594 87.222656 41.871094 87.222656 L 35.195312 87.222656 L 33.289062 96.894531 C 33.253906 97.082031 33.160156 97.234375 33.011719 97.355469 C 32.859375 97.480469 32.6875 97.539062 32.496094 97.539062 Z M 23.921875 97.539062 " fill-opacity="1" fill-rule="nonzero"/><path fill="#ffffff" d="M 40.269531 65.648438 L 44.808594 65.648438 C 48.429688 65.648438 49.6875 66.433594 50.117188 66.902344 C 50.828125 67.675781 50.960938 69.3125 50.503906 71.632812 C 49.992188 74.230469 49.042969 76.070312 47.679688 77.105469 C 46.285156 78.164062 44.019531 78.699219 40.949219 78.699219 L 37.699219 78.699219 Z M 48.050781 56.328125 L 31.570312 56.328125 C 31.183594 56.328125 30.839844 56.453125 30.539062 56.695312 C 30.242188 56.9375 30.054688 57.246094 29.980469 57.621094 L 22.332031 96.4375 C 22.289062 96.671875 22.292969 96.902344 22.351562 97.136719 C 22.414062 97.367188 22.519531 97.574219 22.671875 97.757812 C 22.828125 97.941406 23.011719 98.085938 23.230469 98.1875 C 23.449219 98.289062 23.679688 98.339844 23.921875 98.339844 L 32.496094 98.339844 C 32.882812 98.339844 33.226562 98.21875 33.523438 97.976562 C 33.824219 97.730469 34.011719 97.421875 34.085938 97.046875 L 35.863281 88.019531 L 41.871094 88.019531 C 45.265625 88.019531 48.128906 87.65625 50.371094 86.933594 C 52.675781 86.195312 54.796875 84.945312 56.675781 83.210938 C 58.226562 81.800781 59.507812 80.21875 60.476562 78.507812 C 61.441406 76.796875 62.140625 74.890625 62.546875 72.835938 C 63.546875 67.75 62.734375 63.675781 60.125 60.730469 C 57.539062 57.8125 53.480469 56.332031 48.054688 56.332031 M 35.734375 80.296875 L 40.949219 80.296875 C 44.40625 80.296875 46.980469 79.65625 48.671875 78.371094 C 50.359375 77.085938 51.503906 74.945312 52.09375 71.9375 C 52.664062 69.054688 52.40625 67.019531 51.320312 65.832031 C 50.238281 64.648438 48.066406 64.054688 44.808594 64.054688 L 38.9375 64.054688 L 35.734375 80.296875 M 48.054688 57.929688 C 53.011719 57.929688 56.632812 59.214844 58.90625 61.78125 C 61.179688 64.347656 61.863281 67.929688 60.957031 72.53125 C 60.582031 74.425781 59.949219 76.160156 59.0625 77.730469 C 58.171875 79.300781 57.007812 80.738281 55.574219 82.039062 C 53.863281 83.621094 51.960938 84.746094 49.867188 85.417969 C 47.777344 86.089844 45.109375 86.421875 41.871094 86.421875 L 34.527344 86.421875 L 32.496094 96.742188 L 23.925781 96.742188 L 31.574219 57.933594 L 48.054688 57.933594 " fill-opacity="1" fill-rule="nonzero"/><path fill="#000000" d="M 81.402344 87.21875 C 81.160156 87.21875 80.933594 87.113281 80.777344 86.929688 C 80.625 86.746094 80.5625 86.503906 80.609375 86.269531 L 83.992188 69.09375 C 84.3125 67.460938 84.234375 66.289062 83.765625 65.792969 C 83.480469 65.492188 82.625 64.984375 80.09375 64.984375 L 73.964844 64.984375 L 69.710938 86.574219 C 69.675781 86.761719 69.582031 86.914062 69.429688 87.035156 C 69.28125 87.160156 69.109375 87.21875 68.917969 87.21875 L 60.414062 87.21875 C 60.292969 87.21875 60.175781 87.195312 60.066406 87.144531 C 59.957031 87.09375 59.863281 87.019531 59.789062 86.929688 C 59.710938 86.835938 59.65625 86.734375 59.628906 86.617188 C 59.597656 86.5 59.59375 86.386719 59.617188 86.269531 L 67.265625 47.457031 C 67.300781 47.269531 67.394531 47.113281 67.542969 46.992188 C 67.695312 46.871094 67.867188 46.808594 68.058594 46.808594 L 76.5625 46.808594 C 76.683594 46.808594 76.800781 46.835938 76.910156 46.886719 C 77.019531 46.9375 77.113281 47.007812 77.1875 47.101562 C 77.265625 47.191406 77.320312 47.296875 77.347656 47.414062 C 77.378906 47.527344 77.382812 47.644531 77.359375 47.761719 L 75.515625 57.128906 L 82.105469 57.128906 C 87.128906 57.128906 90.535156 58.003906 92.519531 59.800781 C 94.542969 61.632812 95.171875 64.5625 94.394531 68.511719 L 90.835938 86.574219 C 90.800781 86.761719 90.707031 86.914062 90.558594 87.039062 C 90.40625 87.160156 90.234375 87.21875 90.042969 87.21875 Z M 81.402344 87.21875 " fill-opacity="1" fill-rule="nonzero"/><path fill="#ffffff" d="M 76.566406 46.011719 L 68.0625 46.011719 C 67.671875 46.011719 67.328125 46.132812 67.03125 46.375 C 66.730469 46.621094 66.542969 46.929688 66.46875 47.304688 L 58.824219 86.117188 C 58.777344 86.351562 58.78125 86.582031 58.84375 86.8125 C 58.902344 87.046875 59.007812 87.253906 59.164062 87.4375 C 59.316406 87.621094 59.503906 87.765625 59.722656 87.867188 C 59.941406 87.96875 60.171875 88.019531 60.414062 88.019531 L 68.917969 88.019531 C 69.304688 88.019531 69.648438 87.898438 69.949219 87.652344 C 70.246094 87.410156 70.433594 87.101562 70.507812 86.726562 L 74.632812 65.78125 L 80.09375 65.78125 C 82.621094 65.78125 83.152344 66.316406 83.175781 66.339844 C 83.328125 66.5 83.53125 67.253906 83.195312 68.941406 L 79.8125 86.117188 C 79.765625 86.351562 79.773438 86.582031 79.832031 86.8125 C 79.894531 87.046875 80 87.253906 80.152344 87.4375 C 80.308594 87.621094 80.492188 87.765625 80.714844 87.867188 C 80.933594 87.96875 81.160156 88.019531 81.402344 88.019531 L 90.042969 88.019531 C 90.429688 88.019531 90.773438 87.898438 91.074219 87.652344 C 91.371094 87.410156 91.558594 87.101562 91.632812 86.726562 L 95.191406 68.664062 C 96.027344 64.425781 95.3125 61.246094 93.070312 59.210938 C 90.929688 57.273438 87.34375 56.328125 82.109375 56.328125 L 76.496094 56.328125 L 78.15625 47.914062 C 78.203125 47.679688 78.195312 47.445312 78.136719 47.214844 C 78.074219 46.984375 77.96875 46.777344 77.816406 46.59375 C 77.660156 46.410156 77.476562 46.265625 77.257812 46.164062 C 77.039062 46.0625 76.808594 46.011719 76.566406 46.011719 M 76.566406 47.609375 L 74.53125 57.925781 L 82.109375 57.925781 C 86.875 57.925781 90.164062 58.75 91.972656 60.386719 C 93.785156 62.027344 94.324219 64.683594 93.601562 68.359375 L 90.042969 86.421875 L 81.40625 86.421875 L 84.789062 69.246094 C 85.171875 67.292969 85.03125 65.960938 84.363281 65.25 C 83.695312 64.542969 82.269531 64.183594 80.09375 64.183594 L 73.296875 64.183594 L 68.917969 86.421875 L 60.414062 86.421875 L 68.0625 47.609375 L 76.566406 47.609375 " fill-opacity="1" fill-rule="nonzero"/><path fill="#000000" d="M 107.851562 79.496094 C 111.109375 79.496094 113.542969 78.90625 115.078125 77.738281 C 116.601562 76.582031 117.652344 74.578125 118.203125 71.785156 C 118.71875 69.171875 118.523438 67.351562 117.621094 66.367188 C 116.703125 65.359375 114.714844 64.851562 111.710938 64.851562 L 106.507812 64.851562 L 103.621094 79.496094 Z M 90.828125 97.539062 C 90.585938 97.539062 90.355469 97.433594 90.203125 97.246094 C 90.039062 97.054688 89.984375 96.832031 90.03125 96.585938 L 97.679688 57.777344 C 97.71875 57.585938 97.808594 57.433594 97.960938 57.3125 C 98.109375 57.191406 98.28125 57.128906 98.476562 57.128906 L 114.957031 57.128906 C 120.140625 57.128906 123.992188 58.515625 126.417969 61.253906 C 128.855469 64.003906 129.605469 67.847656 128.652344 72.683594 C 128.265625 74.652344 127.597656 76.480469 126.671875 78.117188 C 125.742188 79.757812 124.515625 81.273438 123.023438 82.625 C 121.238281 84.273438 119.21875 85.46875 117.019531 86.171875 C 114.859375 86.867188 112.085938 87.21875 108.773438 87.21875 L 102.09375 87.21875 L 100.191406 96.890625 C 100.152344 97.082031 100.058594 97.234375 99.910156 97.355469 C 99.761719 97.476562 99.589844 97.539062 99.394531 97.539062 L 90.824219 97.539062 Z M 90.828125 97.539062 " fill-opacity="1" fill-rule="nonzero"/><path fill="#ffffff" d="M 107.175781 65.648438 L 111.710938 65.648438 C 115.335938 65.648438 116.59375 66.433594 117.023438 66.902344 C 117.730469 67.675781 117.867188 69.3125 117.410156 71.632812 C 116.898438 74.230469 115.945312 76.070312 114.585938 77.105469 C 113.191406 78.164062 110.925781 78.699219 107.851562 78.699219 L 104.605469 78.699219 Z M 114.957031 56.328125 L 98.476562 56.328125 C 98.085938 56.328125 97.742188 56.453125 97.445312 56.695312 C 97.144531 56.9375 96.960938 57.246094 96.886719 57.621094 L 89.238281 96.4375 C 89.191406 96.671875 89.195312 96.902344 89.257812 97.136719 C 89.316406 97.367188 89.421875 97.574219 89.578125 97.757812 C 89.730469 97.941406 89.917969 98.085938 90.136719 98.1875 C 90.355469 98.289062 90.585938 98.339844 90.828125 98.339844 L 99.398438 98.339844 C 99.785156 98.339844 100.128906 98.21875 100.429688 97.976562 C 100.726562 97.730469 100.914062 97.421875 100.988281 97.046875 L 102.765625 88.019531 L 108.773438 88.019531 C 112.171875 88.019531 115.03125 87.65625 117.273438 86.933594 C 119.578125 86.195312 121.699219 84.945312 123.578125 83.210938 C 125.132812 81.800781 126.410156 80.21875 127.378906 78.507812 C 128.347656 76.796875 129.042969 74.890625 129.449219 72.835938 C 130.453125 67.75 129.636719 63.675781 127.027344 60.730469 C 124.441406 57.8125 120.382812 56.332031 114.957031 56.332031 M 102.636719 80.296875 L 107.851562 80.296875 C 111.308594 80.296875 113.882812 79.65625 115.574219 78.371094 C 117.265625 77.085938 118.40625 74.945312 119 71.9375 C 119.566406 69.054688 119.308594 67.019531 118.222656 65.832031 C 117.140625 64.648438 114.96875 64.054688 111.710938 64.054688 L 105.839844 64.054688 L 102.636719 80.296875 M 114.957031 57.929688 C 119.917969 57.929688 123.535156 59.214844 125.808594 61.78125 C 128.082031 64.347656 128.765625 67.929688 127.859375 72.53125 C 127.484375 74.425781 126.855469 76.160156 125.964844 77.730469 C 125.074219 79.300781 123.914062 80.738281 122.476562 82.039062 C 120.765625 83.621094 118.863281 84.746094 116.769531 85.417969 C 114.679688 86.089844 112.015625 86.421875 108.773438 86.421875 L 101.433594 86.421875 L 99.398438 96.742188 L 90.828125 96.742188 L 98.476562 57.929688 L 114.957031 57.929688 " fill-opacity="1" fill-rule="nonzero"/></svg>