<svg xmlns="http://www.w3.org/2000/svg" xmlns:xlink="http://www.w3.org/1999/xlink" width="200" zoomAndPan="magnify" viewBox="0 0 150 149.999998" height="200" preserveAspectRatio="xMidYMid meet" version="1.0"><path fill="#2eaf9d" d="M 88.394531 74.875 C 88.394531 67.703125 82.398438 61.890625 75 61.890625 C 67.601562 61.890625 61.605469 67.703125 61.605469 74.875 C 61.605469 82.046875 67.601562 87.863281 75 87.863281 C 82.398438 87.863281 88.394531 82.046875 88.394531 74.875 Z M 88.394531 74.875 " fill-opacity="1" fill-rule="nonzero"/><path fill="#2eaf9d" d="M 118.5 50.765625 C 121.328125 39.621094 124.882812 18.957031 112.351562 11.949219 C 99.875 4.976562 83.640625 18.339844 75.070312 26.363281 C 66.523438 18.421875 49.832031 5.113281 37.308594 12.140625 C 24.839844 19.140625 28.6875 39.460938 31.578125 50.675781 C 19.945312 53.878906 0.00390625 60.777344 0.00390625 74.875 C 0.00390625 88.933594 19.925781 96.4375 31.488281 99.640625 C 28.585938 110.914062 24.933594 130.949219 37.417969 137.929688 C 49.988281 144.957031 66.625 131.964844 75.277344 123.855469 C 83.902344 131.925781 99.980469 145.003906 112.457031 138 C 124.976562 130.972656 121.714844 110.585938 118.824219 99.308594 C 130.035156 96.101562 149.996094 88.757812 149.996094 74.875 C 149.996094 60.914062 129.949219 53.957031 118.5 50.765625 Z M 117.078125 93.328125 C 115.179688 87.503906 112.617188 81.308594 109.484375 74.90625 C 112.476562 68.65625 114.9375 62.539062 116.785156 56.75 C 125.175781 59.109375 143.589844 64.503906 143.589844 74.875 C 143.589844 85.34375 125.921875 90.789062 117.078125 93.328125 Z M 109.25 132.621094 C 99.9375 137.847656 86.109375 125.339844 79.738281 119.398438 C 83.964844 114.914062 88.1875 109.707031 92.3125 103.917969 C 99.5625 103.296875 106.414062 102.277344 112.625 100.882812 C 114.660156 108.859375 118.597656 127.375 109.25 132.621094 Z M 40.621094 132.546875 C 31.308594 127.34375 35.566406 109.46875 37.699219 101.160156 C 43.84375 102.480469 50.644531 103.425781 57.914062 104 C 62.0625 109.660156 66.410156 114.863281 70.789062 119.421875 C 65.378906 124.496094 49.972656 137.777344 40.621094 132.546875 Z M 6.410156 74.875 C 6.410156 64.367188 24.714844 59.011719 33.296875 56.660156 C 35.175781 62.578125 37.636719 68.769531 40.609375 75.027344 C 37.597656 81.378906 35.101562 87.664062 33.207031 93.65625 C 25.019531 91.382812 6.410156 85.390625 6.410156 74.875 Z M 40.519531 17.515625 C 49.867188 12.269531 64.375 25.046875 70.578125 30.800781 C 66.222656 35.335938 61.917969 40.5 57.800781 46.128906 C 50.75 46.765625 43.996094 47.78125 37.789062 49.144531 C 35.457031 40.101562 31.183594 22.757812 40.519531 17.515625 Z M 96.894531 52.882812 C 101.679688 53.46875 106.265625 54.246094 110.570312 55.199219 C 109.277344 59.21875 107.667969 63.417969 105.769531 67.722656 C 103.019531 62.664062 100.066406 57.703125 96.894531 52.882812 Z M 75.070312 35.238281 C 78.027344 38.34375 80.988281 41.808594 83.898438 45.570312 C 77.992188 45.300781 72.078125 45.296875 66.171875 45.566406 C 69.085938 41.839844 72.070312 38.378906 75.070312 35.238281 Z M 44.285156 67.71875 C 42.417969 63.429688 40.820312 59.207031 39.519531 55.132812 C 43.796875 54.207031 48.363281 53.449219 53.117188 52.871094 C 49.933594 57.683594 46.988281 62.640625 44.285156 67.71875 Z M 53.253906 97.324219 C 48.339844 96.792969 43.707031 96.070312 39.429688 95.167969 C 40.753906 91.023438 42.386719 86.714844 44.292969 82.328125 C 47.03125 87.460938 50.023438 92.464844 53.253906 97.324219 Z M 75.25 114.953125 C 72.210938 111.773438 69.183594 108.257812 66.222656 104.480469 C 72.164062 104.707031 78.117188 104.707031 84.054688 104.449219 C 81.132812 108.296875 78.183594 111.816406 75.25 114.953125 Z M 105.832031 82.105469 C 107.835938 86.539062 109.527344 90.824219 110.867188 94.898438 C 106.519531 95.863281 101.824219 96.636719 96.878906 97.210938 C 100.074219 92.296875 103.074219 87.261719 105.832031 82.105469 Z M 88.734375 97.964844 C 79.648438 98.59375 70.507812 98.585938 61.417969 98.015625 C 56.253906 90.703125 51.660156 83.011719 47.691406 75.023438 C 51.640625 67.054688 56.203125 59.378906 61.34375 52.078125 C 70.4375 51.410156 79.589844 51.40625 88.683594 52.082031 C 93.78125 59.382812 98.335938 67.039062 102.378906 74.9375 C 98.382812 82.902344 93.796875 90.59375 88.734375 97.964844 Z M 109.148438 17.332031 C 118.5 22.5625 114.339844 41.132812 112.296875 49.210938 C 106.074219 47.816406 99.316406 46.78125 92.242188 46.136719 C 88.117188 40.449219 83.847656 35.273438 79.5625 30.796875 C 85.847656 24.921875 99.890625 12.152344 109.148438 17.332031 Z M 109.148438 17.332031 " fill-opacity="1" fill-rule="evenodd"/></svg>