<svg xmlns="http://www.w3.org/2000/svg" xmlns:xlink="http://www.w3.org/1999/xlink" width="200" zoomAndPan="magnify" viewBox="0 0 150 149.999998" height="200" preserveAspectRatio="xMidYMid meet" version="1.0"><defs><clipPath id="ac5c366227"><path d="M 0 22.5 L 150 22.5 L 150 127.5 L 0 127.5 Z M 0 22.5 " clip-rule="nonzero"/></clipPath></defs><g clip-path="url(#ac5c366227)"><path fill="#2eaf9d" d="M 77.664062 127.109375 C 57.382812 127.109375 47.628906 117.394531 40.503906 110.300781 C 37.878906 107.027344 34.625 104.597656 30.738281 103.011719 C 26.46875 101.964844 20.714844 101.894531 14.105469 110.535156 C 13.847656 110.875 13.5625 111.1875 13.25 111.476562 C 12.9375 111.765625 12.605469 112.027344 12.246094 112.257812 C 11.890625 112.492188 11.515625 112.691406 11.125 112.859375 C 10.734375 113.027344 10.332031 113.160156 9.917969 113.257812 C 9.5 113.359375 9.082031 113.421875 8.65625 113.449219 C 8.230469 113.476562 7.808594 113.464844 7.386719 113.417969 C 6.960938 113.371094 6.546875 113.292969 6.136719 113.171875 C 5.726562 113.054688 5.332031 112.90625 4.945312 112.71875 C 4.5625 112.535156 4.199219 112.316406 3.851562 112.070312 C 3.507812 111.820312 3.183594 111.546875 2.886719 111.242188 C 2.585938 110.9375 2.316406 110.613281 2.074219 110.261719 C 1.832031 109.914062 1.617188 109.542969 1.4375 109.15625 C 1.261719 108.773438 1.113281 108.375 1.003906 107.960938 C 0.890625 107.550781 0.816406 107.132812 0.777344 106.710938 C 0.738281 106.285156 0.734375 105.863281 0.769531 105.4375 C 0.800781 105.011719 0.871094 104.59375 0.976562 104.179688 C 6.460938 82.65625 20.96875 71.277344 42.929688 71.277344 C 63.210938 71.277344 72.96875 80.992188 80.09375 88.085938 C 82.71875 91.359375 85.972656 93.789062 89.859375 95.375 C 94.132812 96.417969 99.882812 96.492188 106.488281 87.851562 C 106.746094 87.515625 107.03125 87.199219 107.34375 86.910156 C 107.65625 86.621094 107.992188 86.359375 108.347656 86.128906 C 108.707031 85.894531 109.078125 85.695312 109.472656 85.527344 C 109.863281 85.359375 110.265625 85.226562 110.679688 85.128906 C 111.09375 85.027344 111.511719 84.964844 111.9375 84.9375 C 112.363281 84.914062 112.789062 84.921875 113.210938 84.96875 C 113.632812 85.015625 114.050781 85.097656 114.460938 85.214844 C 114.867188 85.332031 115.265625 85.480469 115.648438 85.667969 C 116.03125 85.851562 116.398438 86.070312 116.742188 86.316406 C 117.089844 86.566406 117.410156 86.839844 117.710938 87.144531 C 118.007812 87.449219 118.28125 87.773438 118.523438 88.125 C 118.765625 88.476562 118.976562 88.84375 119.15625 89.230469 C 119.335938 89.613281 119.480469 90.015625 119.59375 90.425781 C 119.703125 90.835938 119.777344 91.253906 119.820312 91.675781 C 119.859375 92.101562 119.859375 92.527344 119.828125 92.949219 C 119.792969 93.375 119.726562 93.792969 119.621094 94.207031 C 114.132812 115.730469 99.625 127.109375 77.664062 127.109375 Z M 31.171875 87.953125 C 32.21875 88.101562 33.253906 88.300781 34.28125 88.554688 C 37.542969 89.585938 40.59375 91.050781 43.4375 92.953125 C 46.28125 94.855469 48.796875 97.121094 50.992188 99.746094 C 57.445312 106.164062 63.53125 112.222656 77.664062 112.222656 C 81.6875 112.304688 85.605469 111.710938 89.421875 110.433594 C 88.378906 110.285156 87.339844 110.085938 86.316406 109.832031 C 83.054688 108.800781 80 107.335938 77.160156 105.433594 C 74.316406 103.53125 71.796875 101.265625 69.601562 98.644531 C 63.148438 92.222656 57.0625 86.167969 42.929688 86.167969 C 38.90625 86.082031 34.988281 86.675781 31.171875 87.953125 Z M 107.441406 78.722656 C 87.160156 78.722656 77.398438 69 70.269531 61.902344 C 67.648438 58.632812 64.394531 56.207031 60.511719 54.625 C 56.246094 53.578125 50.488281 53.507812 43.882812 62.148438 C 43.625 62.484375 43.339844 62.800781 43.027344 63.089844 C 42.714844 63.378906 42.378906 63.640625 42.023438 63.871094 C 41.667969 64.105469 41.292969 64.304688 40.902344 64.472656 C 40.507812 64.640625 40.105469 64.773438 39.691406 64.871094 C 39.277344 64.972656 38.859375 65.035156 38.433594 65.0625 C 38.007812 65.085938 37.585938 65.078125 37.160156 65.03125 C 36.738281 64.984375 36.320312 64.902344 35.914062 64.785156 C 35.503906 64.667969 35.105469 64.519531 34.722656 64.332031 C 34.339844 64.148438 33.976562 63.929688 33.628906 63.683594 C 33.28125 63.433594 32.960938 63.160156 32.660156 62.855469 C 32.363281 62.550781 32.09375 62.226562 31.847656 61.875 C 31.605469 61.523438 31.394531 61.15625 31.214844 60.769531 C 31.035156 60.386719 30.890625 59.984375 30.78125 59.574219 C 30.667969 59.164062 30.59375 58.746094 30.554688 58.324219 C 30.515625 57.898438 30.511719 57.472656 30.542969 57.050781 C 30.578125 56.625 30.648438 56.207031 30.75 55.792969 C 36.238281 34.269531 50.746094 22.890625 72.707031 22.890625 C 92.988281 22.890625 102.746094 32.605469 109.867188 39.699219 C 112.492188 42.972656 115.75 45.402344 119.636719 46.988281 C 123.90625 48.03125 129.660156 48.105469 136.265625 39.464844 C 136.523438 39.125 136.808594 38.8125 137.121094 38.523438 C 137.433594 38.234375 137.769531 37.972656 138.125 37.742188 C 138.480469 37.507812 138.855469 37.308594 139.246094 37.140625 C 139.640625 36.972656 140.042969 36.839844 140.457031 36.742188 C 140.871094 36.640625 141.289062 36.578125 141.714844 36.550781 C 142.140625 36.523438 142.5625 36.535156 142.988281 36.582031 C 143.410156 36.628906 143.828125 36.707031 144.238281 36.828125 C 144.644531 36.945312 145.042969 37.09375 145.425781 37.28125 C 145.808594 37.464844 146.171875 37.683594 146.519531 37.929688 C 146.867188 38.179688 147.1875 38.453125 147.488281 38.757812 C 147.785156 39.0625 148.054688 39.386719 148.300781 39.738281 C 148.542969 40.085938 148.753906 40.457031 148.933594 40.84375 C 149.113281 41.226562 149.257812 41.625 149.367188 42.039062 C 149.480469 42.449219 149.554688 42.867188 149.59375 43.289062 C 149.632812 43.714844 149.636719 44.136719 149.605469 44.5625 C 149.570312 44.988281 149.503906 45.40625 149.398438 45.820312 C 143.910156 67.34375 129.402344 78.722656 107.441406 78.722656 Z M 60.949219 39.566406 C 61.996094 39.714844 63.03125 39.914062 64.058594 40.167969 C 67.320312 41.199219 70.371094 42.664062 73.214844 44.566406 C 76.054688 46.46875 78.574219 48.734375 80.769531 51.355469 C 86.9375 57.507812 93.308594 63.832031 107.441406 63.832031 C 111.464844 63.917969 115.382812 63.324219 119.199219 62.046875 C 118.152344 61.898438 117.117188 61.699219 116.09375 61.445312 C 112.828125 60.414062 109.777344 58.949219 106.933594 57.046875 C 104.09375 55.144531 101.574219 52.878906 99.378906 50.253906 C 92.925781 43.835938 86.839844 37.777344 72.707031 37.777344 C 68.683594 37.695312 64.765625 38.289062 60.949219 39.566406 Z M 60.949219 39.566406 " fill-opacity="1" fill-rule="nonzero"/></g></svg>