<svg xmlns="http://www.w3.org/2000/svg" xmlns:xlink="http://www.w3.org/1999/xlink" width="200" zoomAndPan="magnify" viewBox="0 0 150 149.999998" height="200" preserveAspectRatio="xMidYMid meet" version="1.0"><path fill="#2eaf9d" d="M 6.789062 0.339844 C 4.839844 0.339844 2.988281 1.175781 1.699219 2.636719 C 0.410156 4.09375 -0.1875 6.035156 0.0507812 7.96875 L 13.628906 116.566406 C 13.910156 118.816406 15.296875 120.78125 17.328125 121.792969 L 71.625 148.945312 C 73.535156 149.898438 75.785156 149.898438 77.695312 148.945312 L 131.996094 121.792969 C 134.023438 120.78125 135.414062 118.816406 135.695312 116.566406 L 149.269531 7.96875 C 149.511719 6.035156 148.910156 4.09375 147.621094 2.636719 C 146.335938 1.175781 144.480469 0.339844 142.535156 0.339844 Z M 6.789062 0.339844 " fill-opacity="1" fill-rule="nonzero"/><path fill="#4af8e4" d="M 33.9375 20.703125 L 122.171875 20.703125 C 125.320312 20.703125 128.054688 22.867188 128.777344 25.929688 C 129.5 28.992188 128.023438 32.152344 125.207031 33.558594 L 76.261719 58.03125 L 115.386719 58.03125 C 117.398438 58.03125 119.304688 58.925781 120.597656 60.46875 C 121.886719 62.015625 122.421875 64.050781 122.0625 66.035156 L 115.273438 103.363281 C 114.925781 105.285156 113.765625 106.964844 112.089844 107.96875 L 78.152344 128.332031 C 76.003906 129.621094 73.320312 129.621094 71.167969 128.332031 L 37.230469 107.96875 C 35.527344 106.945312 34.355469 105.226562 34.03125 103.265625 L 30.636719 82.902344 L 44.027344 80.671875 L 46.902344 97.941406 L 74.660156 114.597656 L 102.46875 97.910156 L 107.253906 71.605469 L 47.511719 71.605469 C 44.363281 71.605469 41.628906 69.441406 40.90625 66.378906 C 40.183594 63.316406 41.660156 60.15625 44.476562 58.75 L 93.421875 34.277344 L 33.9375 34.277344 Z M 33.9375 20.703125 " fill-opacity="1" fill-rule="evenodd"/></svg>