<svg xmlns="http://www.w3.org/2000/svg" xmlns:xlink="http://www.w3.org/1999/xlink" width="200" zoomAndPan="magnify" viewBox="0 0 150 149.999998" height="200" preserveAspectRatio="xMidYMid meet" version="1.0"><path fill="#2eaf9d" d="M 114.960938 138.238281 C 101.875 138.238281 93.410156 132 89.285156 123.839844 L 100.761719 117.191406 C 103.785156 122.128906 107.707031 125.75 114.65625 125.75 C 120.492188 125.75 124.21875 122.832031 124.21875 118.804688 C 124.21875 112.746094 116.132812 110.371094 110.425781 107.929688 C 100.257812 103.601562 93.507812 98.164062 93.507812 86.683594 C 93.507812 76.113281 101.5625 68.0625 114.15625 68.0625 C 123.109375 68.0625 129.5625 71.179688 134.1875 79.332031 L 123.214844 86.382812 C 120.796875 82.050781 118.183594 80.34375 114.152344 80.34375 C 110.023438 80.34375 107.402344 82.960938 107.402344 86.382812 C 107.402344 90.613281 110.019531 92.320312 116.0625 94.941406 C 128.730469 100.367188 138.316406 104.636719 138.316406 118.601562 C 138.320312 131.296875 128.355469 138.238281 114.960938 138.238281 Z M 82.5 116.992188 C 82.5 131.59375 73.507812 139.3125 61.019531 139.3125 C 49.738281 139.3125 42.984375 135 39.660156 127.5 L 39.464844 127.5 L 50.929688 119.484375 C 53.144531 123.40625 55.140625 126.1875 59.96875 126.1875 C 64.605469 126.1875 67.5 123.84375 67.5 116.800781 L 67.5 67.5 L 82.5 67.5 Z M 0 150 L 150 150 L 150 0 L 0 0 Z M 0 150 " fill-opacity="1" fill-rule="evenodd"/></svg>