<svg xmlns="http://www.w3.org/2000/svg" xmlns:xlink="http://www.w3.org/1999/xlink" width="200" zoomAndPan="magnify" viewBox="0 0 150 149.999998" height="200" preserveAspectRatio="xMidYMid meet" version="1.0"><defs><clipPath id="fb75ccb8e6"><path d="M 0 84 L 63 84 L 63 114.339844 L 0 114.339844 Z M 0 84 " clip-rule="nonzero"/></clipPath></defs><g clip-path="url(#fb75ccb8e6)"><path fill="#2eaf9d" d="M 0.554688 107.589844 L 5.457031 107.589844 L 5.457031 88.226562 L 13.050781 105.113281 C 13.949219 107.148438 15.175781 107.878906 17.582031 107.878906 C 19.984375 107.878906 21.164062 107.15625 22.0625 105.113281 L 29.65625 88.226562 L 29.65625 107.597656 L 34.5625 107.597656 L 34.5625 88.257812 C 34.5625 86.371094 33.804688 85.460938 32.25 84.988281 C 28.523438 83.824219 26.023438 84.832031 24.890625 87.347656 L 17.441406 104.011719 L 10.222656 87.339844 C 9.136719 84.824219 6.589844 83.816406 2.867188 84.980469 C 1.308594 85.453125 0.554688 86.367188 0.554688 88.25 Z M 38.640625 91.824219 L 43.542969 91.824219 L 43.542969 102.496094 C 43.496094 103.078125 43.730469 104.4375 46.414062 104.480469 C 47.785156 104.5 56.996094 104.480469 57.082031 104.480469 L 57.082031 91.769531 L 61.996094 91.769531 C 62.019531 91.769531 61.992188 109.097656 61.992188 109.171875 C 62.019531 113.445312 56.691406 114.375 54.234375 114.445312 L 38.746094 114.445312 L 38.746094 111.144531 L 54.261719 111.144531 C 57.417969 110.8125 57.046875 109.242188 57.046875 108.714844 L 57.046875 107.425781 L 46.621094 107.425781 C 41.769531 107.382812 38.683594 105.265625 38.644531 102.832031 C 38.640625 102.613281 38.75 91.929688 38.640625 91.824219 Z M 38.640625 91.824219 " fill-opacity="1" fill-rule="nonzero"/></g><path fill="#4af8e4" d="M 65.777344 107.589844 L 79.882812 107.589844 C 81.53125 107.589844 83.136719 107.246094 84.410156 106.648438 C 86.535156 105.671875 87.570312 104.351562 87.570312 102.621094 L 87.570312 99.039062 C 87.570312 97.621094 86.390625 96.300781 84.082031 95.421875 C 82.855469 94.949219 81.34375 94.699219 79.882812 94.699219 L 73.941406 94.699219 C 71.960938 94.699219 71.015625 94.101562 70.78125 92.78125 C 70.734375 92.625 70.734375 92.488281 70.734375 92.339844 L 70.734375 90.109375 C 70.734375 89.980469 70.734375 89.855469 70.78125 89.699219 C 71.015625 88.691406 71.535156 88.410156 73.28125 88.246094 C 73.421875 88.246094 73.609375 88.210938 73.753906 88.210938 L 87.761719 88.210938 L 87.761719 84.941406 L 73.988281 84.941406 C 72.007812 84.941406 70.96875 85.070312 70.027344 85.351562 C 67.097656 86.265625 65.824219 87.71875 65.824219 90.234375 L 65.824219 93.09375 C 65.824219 95.296875 68.324219 97.183594 72.519531 97.621094 C 72.992188 97.652344 73.464844 97.683594 73.9375 97.683594 L 79.03125 97.683594 C 79.21875 97.683594 79.40625 97.683594 79.550781 97.71875 C 81.105469 97.84375 81.765625 98.125 82.238281 98.691406 C 82.527344 98.980469 82.617188 99.257812 82.617188 99.5625 L 82.617188 102.425781 C 82.617188 102.773438 82.378906 103.210938 81.90625 103.589844 C 81.484375 103.964844 80.777344 104.21875 79.832031 104.28125 C 79.644531 104.28125 79.503906 104.3125 79.3125 104.3125 L 65.777344 104.3125 Z M 118.171875 101.898438 C 118.171875 105.265625 120.667969 107.152344 125.714844 107.527344 C 126.1875 107.5625 126.660156 107.585938 127.132812 107.589844 L 139.914062 107.589844 L 139.914062 104.320312 L 127.035156 104.320312 C 124.160156 104.320312 123.074219 103.597656 123.074219 101.867188 L 123.074219 84.949219 L 118.167969 84.949219 L 118.167969 101.898438 Z M 90.699219 102.070312 L 90.699219 90.410156 C 90.699219 87.449219 92.777344 85.652344 96.890625 85.085938 C 97.332031 85.023438 97.773438 84.992188 98.214844 84.992188 L 107.527344 84.992188 C 107.984375 84.992188 108.441406 85.023438 108.898438 85.085938 C 113.007812 85.652344 115.089844 87.449219 115.089844 90.410156 L 115.089844 102.070312 C 115.089844 104.472656 114.207031 105.757812 112.167969 106.597656 L 117 110.957031 L 111.304688 110.957031 L 107.398438 107.429688 L 103.460938 107.679688 L 98.214844 107.679688 C 97.316406 107.679688 96.371094 107.550781 95.332031 107.269531 C 92.207031 106.417969 90.699219 104.78125 90.699219 102.070312 Z M 95.996094 101.777344 C 95.996094 101.9375 96.042969 102.09375 96.089844 102.28125 C 96.378906 103.636719 97.648438 104.394531 99.578125 104.394531 L 104.035156 104.394531 L 99.941406 100.699219 L 105.636719 100.699219 L 109.199219 103.921875 C 109.859375 103.570312 110.289062 103.035156 110.4375 102.347656 C 110.484375 102.1875 110.484375 102.03125 110.484375 101.875 L 110.484375 90.695312 C 110.484375 90.570312 110.484375 90.40625 110.4375 90.253906 C 110.144531 88.996094 108.875 88.269531 106.984375 88.269531 L 99.59375 88.269531 C 97.410156 88.269531 96 89.214844 96 90.695312 L 96 101.789062 Z M 95.996094 101.777344 " fill-opacity="1" fill-rule="nonzero"/><path fill="#2eaf9d" d="M 144.226562 79.523438 C 141.210938 79.441406 138.90625 79.722656 136.9375 80.554688 C 136.378906 80.789062 135.488281 80.796875 135.394531 81.496094 C 135.703125 81.820312 135.75 82.300781 135.996094 82.695312 C 136.464844 83.457031 137.261719 84.476562 137.96875 85.011719 C 138.742188 85.59375 139.539062 86.21875 140.367188 86.726562 C 141.84375 87.628906 143.492188 88.140625 144.914062 89.042969 C 145.75 89.574219 146.582031 90.242188 147.398438 90.84375 C 147.800781 91.136719 148.074219 91.597656 148.597656 91.785156 L 148.597656 91.699219 C 148.324219 91.347656 148.253906 90.867188 148 90.5 L 146.882812 89.386719 C 145.792969 87.929688 144.410156 86.667969 142.941406 85.613281 C 141.769531 84.769531 139.140625 83.632812 138.652344 82.265625 L 138.566406 82.183594 C 139.398438 82.085938 140.371094 81.785156 141.140625 81.582031 C 142.429688 81.238281 143.582031 81.324219 144.914062 80.980469 L 146.714844 80.46875 L 146.714844 80.125 C 146.042969 79.433594 145.5625 78.519531 144.828125 77.894531 C 142.910156 76.257812 140.8125 74.628906 138.65625 73.265625 C 137.460938 72.507812 135.980469 72.019531 134.710938 71.378906 C 134.285156 71.164062 133.535156 71.050781 133.253906 70.691406 C 132.589844 69.84375 132.226562 68.765625 131.710938 67.78125 C 130.636719 65.710938 129.578125 63.449219 128.625 61.265625 C 127.972656 59.78125 127.546875 58.3125 126.738281 56.980469 C 122.84375 50.578125 118.65625 46.714844 112.164062 42.917969 C 110.78125 42.113281 109.121094 41.792969 107.363281 41.375 L 104.53125 41.203125 C 103.957031 40.964844 103.355469 40.257812 102.816406 39.917969 C 100.664062 38.558594 95.148438 35.605469 93.558594 39.480469 C 92.550781 41.933594 95.058594 44.324219 95.957031 45.570312 C 96.585938 46.441406 97.394531 47.417969 97.84375 48.398438 C 98.140625 49.042969 98.191406 49.6875 98.445312 50.371094 C 99.066406 52.042969 99.609375 53.878906 100.414062 55.429688 C 100.824219 56.214844 101.273438 57.042969 101.789062 57.746094 C 102.105469 58.175781 102.644531 58.367188 102.730469 59.03125 C 102.203125 59.773438 102.171875 60.921875 101.871094 61.859375 C 100.53125 66.085938 101.039062 71.335938 102.988281 74.464844 C 103.585938 75.425781 104.992188 77.484375 106.929688 76.695312 C 108.625 76.003906 108.238281 73.867188 108.730469 71.980469 C 108.839844 71.550781 108.773438 71.238281 108.988281 70.949219 L 108.988281 71.035156 L 110.53125 74.121094 C 111.675781 75.960938 113.703125 77.882812 115.417969 79.183594 C 116.308594 79.855469 117.019531 81.019531 118.164062 81.410156 L 118.164062 81.324219 L 118.078125 81.324219 C 117.855469 80.976562 117.503906 80.832031 117.21875 80.554688 C 116.550781 79.898438 115.800781 79.078125 115.246094 78.324219 C 113.683594 76.203125 112.304688 73.882812 111.046875 71.464844 C 110.445312 70.3125 109.921875 69.039062 109.417969 67.867188 C 109.222656 67.414062 109.226562 66.726562 108.820312 66.492188 C 108.265625 67.355469 107.445312 68.050781 107.019531 69.066406 C 106.332031 70.691406 106.242188 72.671875 105.988281 74.726562 C 105.839844 74.777344 105.90625 74.742188 105.816406 74.808594 C 104.625 74.523438 104.203125 73.292969 103.761719 72.238281 C 102.636719 69.570312 102.429688 65.277344 103.417969 62.207031 C 103.671875 61.414062 104.828125 58.910156 104.359375 58.175781 C 104.136719 57.445312 103.398438 57.015625 102.988281 56.460938 C 102.480469 55.769531 101.96875 54.859375 101.617188 54.0625 C 100.695312 51.980469 100.269531 49.648438 99.300781 47.542969 C 98.839844 46.539062 98.058594 45.523438 97.414062 44.636719 C 96.703125 43.648438 95.910156 42.917969 95.359375 41.726562 C 95.160156 41.304688 94.894531 40.625 95.1875 40.183594 C 95.25 39.902344 95.417969 39.730469 95.699219 39.671875 C 96.199219 39.285156 97.585938 39.796875 98.101562 40.011719 C 99.476562 40.585938 100.625 41.128906 101.789062 41.898438 C 102.347656 42.261719 102.914062 42.988281 103.589844 43.1875 L 104.359375 43.1875 C 105.566406 43.464844 106.917969 43.273438 108.046875 43.617188 C 110.039062 44.222656 111.824219 45.164062 113.449219 46.1875 C 118.390625 49.308594 122.429688 53.75 125.195312 59.054688 C 125.640625 59.910156 125.832031 60.722656 126.222656 61.628906 C 127.011719 63.445312 128.007812 65.332031 128.792969 67.113281 C 129.578125 68.894531 130.34375 70.691406 131.453125 72.171875 C 132.035156 72.953125 134.289062 73.371094 135.3125 73.800781 C 136.027344 74.105469 137.203125 74.421875 137.882812 74.832031 C 139.179688 75.613281 140.4375 76.546875 141.65625 77.40625 C 142.265625 77.832031 144.136719 78.773438 144.230469 79.546875 Z M 144.226562 79.523438 " fill-opacity="1" fill-rule="nonzero"/><path fill="#2eaf9d" d="M 105.90625 46.859375 C 105.277344 46.847656 104.832031 46.925781 104.363281 47.03125 L 104.363281 47.117188 L 104.449219 47.117188 C 104.746094 47.730469 105.277344 48.128906 105.648438 48.660156 L 106.503906 50.460938 L 106.589844 50.375 C 107.121094 50 107.367188 49.402344 107.363281 48.488281 C 107.148438 48.261719 107.117188 47.980469 106.933594 47.714844 C 106.6875 47.359375 106.207031 47.15625 105.902344 46.855469 Z M 105.90625 46.859375 " fill-opacity="1" fill-rule="evenodd"/><path fill="#4af8e4" d="M 142.21875 104.226562 C 142.21875 106.386719 143.925781 107.84375 145.835938 107.84375 C 147.742188 107.84375 149.449219 106.386719 149.449219 104.226562 C 149.449219 102.066406 147.742188 100.613281 145.835938 100.613281 C 143.925781 100.613281 142.21875 102.066406 142.21875 104.226562 Z M 148.640625 104.226562 C 148.640625 105.867188 147.386719 107.089844 145.832031 107.089844 C 144.261719 107.089844 143.027344 105.867188 143.027344 104.226562 C 143.027344 102.589844 144.261719 101.363281 145.832031 101.363281 C 147.386719 101.363281 148.640625 102.589844 148.640625 104.226562 Z M 146.808594 106.289062 L 147.617188 106.289062 L 146.429688 104.480469 C 147.066406 104.410156 147.550781 104.101562 147.550781 103.351562 C 147.550781 102.511719 147.019531 102.164062 145.996094 102.164062 L 144.386719 102.164062 L 144.386719 106.292969 L 145.082031 106.292969 L 145.082031 104.507812 L 145.726562 104.507812 L 146.808594 106.292969 Z M 145.082031 103.925781 L 145.082031 102.742188 L 145.882812 102.742188 C 146.296875 102.742188 146.796875 102.820312 146.796875 103.300781 C 146.796875 103.878906 146.34375 103.929688 145.824219 103.929688 L 145.082031 103.929688 Z M 145.082031 103.925781 " fill-opacity="1" fill-rule="evenodd"/></svg>